<?xml version="1.0" encoding="UTF-8" standalone="no"?>
<svg
   inkscape:version="1.4.3 (0d15f75, 2025-12-25)"
   sodipodi:docname="RaymarineAuto_pi.svg"
   id="svg8"
   style="clip-rule:evenodd;fill-rule:evenodd"
   xml:space="preserve"
   version="1.1"
   viewBox="0 0 32 32"
   height="100%"
   width="100%"
   inkscape:export-filename="RaymarineAuto_pi.svg"
   inkscape:export-xdpi="96"
   inkscape:export-ydpi="96"
   xmlns:inkscape="http://www.inkscape.org/namespaces/inkscape"
   xmlns:sodipodi="http://sodipodi.sourceforge.net/DTD/sodipodi-0.dtd"
   xmlns="http://www.w3.org/2000/svg"
   xmlns:svg="http://www.w3.org/2000/svg"
   xmlns:rdf="http://www.w3.org/1999/02/22-rdf-syntax-ns#"
   xmlns:cc="http://creativecommons.org/ns#"
   xmlns:dc="http://purl.org/dc/elements/1.1/"
   xmlns:serif="http://www.serif.com/"><metadata
     id="metadata14"><rdf:RDF><cc:Work
         rdf:about=""><dc:format>image/svg+xml</dc:format><dc:type
           rdf:resource="http://purl.org/dc/dcmitype/StillImage" /></cc:Work></rdf:RDF></metadata><defs
     id="defs12"><inkscape:path-effect
       effect="bspline"
       id="path-effect63"
       is_visible="true"
       lpeversion="1.3"
       weight="33.333333"
       steps="2"
       helper_size="0"
       apply_no_weight="true"
       apply_with_weight="true"
       only_selected="false"
       uniform="false" /><inkscape:path-effect
       effect="bspline"
       id="path-effect61"
       is_visible="true"
       lpeversion="1.3"
       weight="33.333333"
       steps="2"
       helper_size="0"
       apply_no_weight="true"
       apply_with_weight="true"
       only_selected="false"
       uniform="false" /></defs><sodipodi:namedview
     inkscape:current-layer="svg8"
     inkscape:window-maximized="1"
     inkscape:window-y="-8"
     inkscape:window-x="-8"
     inkscape:cy="16.241359"
     inkscape:cx="14.584077"
     inkscape:zoom="22.627417"
     showgrid="false"
     id="namedview10"
     inkscape:window-height="1027"
     inkscape:window-width="1920"
     inkscape:pageshadow="2"
     inkscape:pageopacity="0"
     guidetolerance="10"
     gridtolerance="10"
     objecttolerance="10"
     borderopacity="1"
     bordercolor="#666666"
     pagecolor="#ffffff"
     inkscape:document-rotation="0"
     inkscape:pagecheckerboard="0"
     inkscape:showpageshadow="0"
     inkscape:deskcolor="#d1d1d1"><inkscape:page
       x="0"
       y="0"
       width="32"
       height="32"
       id="page1"
       margin="0"
       bleed="0" /></sodipodi:namedview><path
     style="fill:#550000;fill-opacity:1"
     d="M 10.074588,13.899699 C 10.05663,13.773991 10.038671,13.648283 9.9758175,13.432784 9.9129636,13.217285 9.8052138,12.911994 9.4011529,12.624662 8.997092,12.33733 8.2967196,12.067956 7.8118465,11.978165 c -0.484873,-0.08979 -0.7542472,0 -0.9877047,0.323248 -0.2334575,0.323249 -0.4309984,0.879955 -0.6105811,1.328912 -0.1795828,0.448957 -0.3412072,0.790164 -0.4220194,1.14035 -0.080812,0.350186 -0.080812,0.709352 -0.062855,0.92485 0.017958,0.215497 0.053876,0.287333 0.080813,0.395082 0.026937,0.10775 0.044896,0.251416 0.1077496,0.511811 0.062854,0.260395 0.1706038,0.637519 0.4758943,0.888934 0.3052905,0.251416 0.8081219,0.377124 1.3109534,0.502832"
     id="path63"
     inkscape:path-effect="#path-effect63"
     inkscape:original-d="M 10.074588,13.899699 C 10.05663,13.773991 10.038672,13.648283 10.020713,13.522575 9.9129636,13.217285 9.805214,12.911994 9.6974644,12.606704 8.997092,12.33733 8.2967196,12.067956 7.5963471,11.798582 c -0.269374,0.08979 -0.538748,0.179582 -0.808122,0.269374 -0.1975409,0.556706 -0.3950819,1.113412 -0.5926228,1.670119 -0.1616244,0.341207 -0.3232488,0.682414 -0.4848732,1.023621 0,0.359165 0,0.718331 0,1.077496 0.035916,0.07183 0.071833,0.143666 0.1077496,0.215499 0.017958,0.143666 0.035916,0.287332 0.053875,0.430999 0.1077496,0.377123 0.2154992,0.754247 0.3232488,1.13137 0.5028315,0.125708 1.0056629,0.251416 1.5084944,0.377124"
     transform="matrix(0.98767141,0,0,0.98804702,0.25203748,0.21584047)" /><g
     id="g4276"
     transform="matrix(0.99931299,0,0,0.99517964,-0.00199862,0.03781683)"><rect
       style="fill:#282828"
       height="32.154999"
       width="32.021999"
       y="-0.037999999"
       x="0.0020000001"
       serif:id="g4276"
       id="g42761" /></g><g
     id="g1806"
     transform="matrix(0.98767141,0,0,0.98804702,0.5384369,-0.08230687)"
     style="fill:#b3b3b3"><circle
       style="display:inline;fill:#b3b3b3;fill-opacity:1"
       r="13.517"
       cy="16"
       cx="15.754"
       id="circle2" /></g><g
     id="g88"
     transform="matrix(0.91125051,0,0,0.73653778,1.3460552,6.3581527)"
     style="fill:#800000"><g
       style="overflow:visible;fill-rule:evenodd;stroke-width:0.501;stroke-linejoin:bevel;fill:#800000"
       id="g60"
       transform="matrix(0.39249496,0,0,0.29595819,18.208954,19.734197)"><path
         style="fill:#800000;fill-opacity:1;stroke-width:0.0748003"
         d="M 0,11.439118 V 0 l 4.1482225,0.00308 c 4.662496,0.00341 5.369787,0.1209308 6.6630425,1.1069341 1.351307,1.0302578 2.089442,3.108011 1.94925,5.486871 -0.144931,2.4595124 -0.791781,3.8757439 -2.211604,4.8422549 -0.497666,0.338774 -0.9088165,0.669056 -0.9136715,0.73396 -0.0049,0.0649 0.17382,0.173741 0.3970455,0.241862 0.249577,0.07616 0.680277,0.505119 1.118437,1.1139 0.612413,0.850888 0.92033,1.564023 2.190727,5.073748 0.812989,2.246038 1.478161,4.126893 1.478161,4.179676 0,0.05279 -0.984977,0.09597 -2.188841,0.09597 H 10.441926 L 9.1802675,19.341742 c -1.690289,-4.737957 -2.101172,-5.2595 -4.145402,-5.261846 l -0.854975,-9.82e-4 v 4.399661 4.399661 H 2.0899435 0 Z M 7.6063255,9.7491061 c 0.65051,-0.5292553 0.920455,-1.1705789 0.980826,-2.3302149 0.04012,-0.77072 -0.01,-1.2327865 -0.196357,-1.8188997 C 8.0216215,4.4404639 7.5275775,4.1644679 5.6681755,4.079014 l -1.488285,-0.0684 v 3.1224566 3.1224564 l 1.50806,-0.0863 c 1.171225,-0.06702 1.599707,-0.160857 1.918375,-0.4201259 z"
         id="path66"
         inkscape:connector-curvature="0" /></g><g
       id="g79"
       transform="matrix(0.85981308,0,0,0.77492983,0.20435542,12.006095)"
       style="fill:#800000"><path
         style="fill:#800000;fill-opacity:1"
         d="m 13.630325,10.182338 c 0,0 -3.286363,2.855364 -3.286363,2.855364"
         id="path61"
         inkscape:path-effect="#path-effect61"
         inkscape:original-d="m 13.630325,10.182338 -3.286363,2.855364" /><path
         style="fill:#800000;fill-opacity:1;stroke-width:1.12245"
         id="path77"
         sodipodi:type="arc"
         sodipodi:cx="-17.911804"
         sodipodi:cy="6.6033511"
         sodipodi:rx="2.8611712"
         sodipodi:ry="11.552677"
         sodipodi:start="0"
         sodipodi:end="3.1458996"
         sodipodi:open="true"
         sodipodi:arc-type="arc"
         d="m -15.050633,6.6033511 a 2.8611712,11.552677 0 0 1 -1.434144,10.0131939 2.8611712,11.552677 0 0 1 -2.864722,-0.02491 2.8611712,11.552677 0 0 1 -1.42345,-10.0380415"
         transform="matrix(-0.20696953,-0.97834739,0.93017258,-0.36712255,0,0)" /><rect
         style="fill:#800000;fill-opacity:1;stroke-width:1.13039"
         id="rect77"
         width="1.2391205"
         height="7.8657212"
         x="9.1048422"
         y="10.020713"
         ry="0.10953259" /><rect
         style="fill:#800000;fill-opacity:1;stroke-width:1.30384"
         id="rect78"
         width="11.205959"
         height="0.91587162"
         x="9.4280901"
         y="10.020713"
         ry="0.1862054" /><rect
         style="fill:#800000;fill-opacity:1"
         id="rect79"
         width="5.4413552"
         height="1.8856181"
         x="9.9129639"
         y="10.290088"
         ry="0.10953259" /></g></g><g
     id="g85"
     transform="matrix(1.1131273,0,0,1.4212912,-8.3227914,-5.6605699)"
     style="fill:#333333"><path
       style="clip-rule:evenodd;fill:#333333;fill-opacity:1;fill-rule:evenodd;stroke-width:0.947373"
       d="m 14.130631,15.810621 -0.4056,1.023622 h 0.41753 z"
       id="path84-9" /><rect
       style="clip-rule:evenodd;fill:#333333;fill-opacity:1;fill-rule:evenodd;stroke-width:0.971423"
       id="rect83-6"
       width="1.8048059"
       height="0.83505946"
       x="14.034386"
       y="16.000816"
       ry="0.10801908" /><rect
       style="clip-rule:evenodd;fill:#333333;fill-opacity:1;fill-rule:evenodd;stroke-width:0.941728"
       id="rect80-5"
       width="1.8585571"
       height="8.7448158"
       x="-15.533998"
       y="15.600972"
       ry="0.10840878"
       transform="matrix(-0.90523921,0.42490231,0.35842582,0.93355821,0,0)" /><rect
       style="fill:#333333;fill-opacity:1;stroke-width:0.968794"
       id="rect80"
       width="1.9591801"
       height="8.7793941"
       x="18.920816"
       y="0.37658519"
       ry="0.10883745"
       transform="matrix(0.91673232,0.39950201,-0.36311773,0.93174327,0,0)" /><rect
       style="fill:#333333;fill-opacity:1;stroke-width:1.02273"
       id="rect81"
       width="2.4513037"
       height="0.99668384"
       x="17.212999"
       y="7.9195962"
       ry="0.10801908" /><rect
       style="fill:#333333;fill-opacity:1"
       id="rect82"
       width="4.2830467"
       height="1.5354319"
       x="16.054691"
       y="12.822203"
       ry="0.10801908" /><rect
       style="fill:#333333;fill-opacity:1;stroke-width:0.9231"
       id="rect83"
       width="1.6297127"
       height="0.83505946"
       x="21.105453"
       y="16.054691"
       ry="0.10801908" /><path
       style="fill:#333333;fill-opacity:1;stroke-width:1.02976"
       d="m 22.661089,15.815754 0.457936,1.071169 H 22.64762 Z"
       id="path84" /><path
       id="rect83-8"
       style="fill:#333333;stroke-width:0.971423"
       d="m 14.136319,16.000816 h 1.600939 c 0.05647,0 0.101933,0.04818 0.101933,0.108019 v 0.619022 c 0,0.05984 -0.04547,0.108019 -0.101933,0.108019 h -1.600939 c -0.05647,0 -0.101933,-0.04818 -0.101933,-0.108019 v -0.619022 c 0,-0.05984 0.04547,-0.108019 0.101933,-0.108019 z" /></g><g
     id="g1"><path
       style="clip-rule:evenodd;fill:#333333;fill-opacity:1;fill-rule:evenodd;stroke-width:1.00964"
       id="path85-4"
       sodipodi:type="arc"
       sodipodi:cx="-9.0139523"
       sodipodi:cy="21.385433"
       sodipodi:rx="3.7571194"
       sodipodi:ry="4.3897252"
       sodipodi:start="0"
       sodipodi:end="3.1458996"
       sodipodi:open="true"
       sodipodi:arc-type="arc"
       d="m -5.2568328,21.385433 a 3.7571194,4.3897252 0 0 1 -1.8832329,3.804761 3.7571194,4.3897252 0 0 1 -3.7617813,-0.0095 3.7571194,4.3897252 0 0 1 -1.86919,-3.814202"
       transform="matrix(0.01020055,-0.99994797,0.99978449,0.02075996,0,0)" /><path
       style="fill:#b3b3b3;fill-opacity:1;stroke-width:0.586265"
       id="path85"
       sodipodi:type="arc"
       sodipodi:cx="-9.1180668"
       sodipodi:cy="21.373888"
       sodipodi:rx="2.0684431"
       sodipodi:ry="2.6884375"
       sodipodi:start="0"
       sodipodi:end="3.1458996"
       sodipodi:open="true"
       sodipodi:arc-type="arc"
       d="m -7.0496237,21.373888 a 2.0684431,2.6884375 0 0 1 -1.0367943,2.330183 2.0684431,2.6884375 0 0 1 -2.071009,-0.0058 2.0684431,2.6884375 0 0 1 -1.029064,-2.335965"
       transform="matrix(0.01134789,-0.99993561,0.99982586,0.01866153,0,0)" /><rect
       style="fill:#333333;fill-opacity:1;stroke-width:1.26698"
       id="rect85"
       width="2.3473461"
       height="12.680674"
       x="17.711765"
       y="5.7001886"
       ry="0.15343569" /><rect
       style="fill:#333333;fill-opacity:1;stroke-width:1.16216"
       id="rect86"
       width="1.5232778"
       height="1.7694135"
       x="19.88431"
       y="5.6959128"
       ry="0.1616922" /><rect
       style="fill:#333333;fill-opacity:1;stroke-width:1.13507"
       id="rect87"
       width="1.3984189"
       height="1.6375076"
       x="19.934252"
       y="11.594966"
       ry="0.15424266" /></g></svg>
